<?xml version="1.0" encoding="UTF-8" standalone="no" ?>
<!DOCTYPE svg PUBLIC "-//W3C//DTD SVG 1.1//EN" "http://www.w3.org/Graphics/SVG/1.1/DTD/svg11.dtd">
<svg xmlns="http://www.w3.org/2000/svg" xmlns:xlink="http://www.w3.org/1999/xlink" version="1.1" width="400" height="400" viewBox="0 0 400 400" xml:space="preserve">
<desc>Created with Fabric.js 3.6.2</desc>
<defs>
</defs>
<g transform="matrix(0.39 0 0 0.39 202.73 197)" id="Layer_1"  >
<linearGradient id="SVGID_linear-gradient_2" gradientUnits="userSpaceOnUse" gradientTransform="matrix(1 0 0 1 0 0)"  x1="13.751" y1="497.552" x2="500.246" y2="11.057">
<stop offset="0%" style="stop-color:rgb(32,145,66);stop-opacity: 1"/>
<stop offset="100%" style="stop-color:rgb(86,210,99);stop-opacity: 1"/>
</linearGradient>
<path style="stroke: none; stroke-width: 1; stroke-dasharray: none; stroke-linecap: butt; stroke-dashoffset: 0; stroke-linejoin: miter; stroke-miterlimit: 4; fill: url(#SVGID_linear-gradient_2); fill-rule: nonzero; opacity: 1;"  transform=" translate(-263, -248.31)" d="M 263 127.88 a 120.44 120.44 0 0 0 -99.7 188 l -11.769 45.405 l 47.321 -11.041 A 120.432 120.432 0 1 0 263 127.88 Z m 59.22 186.186 c -16.845 7.9 -52.014 3.778 -89.065 -27.93 S 186.6 220.316 191.8 202.454 s 25.63 -21.162 29.484 -20.309 s 23.126 31.406 20.5 34.97 s -15.311 16.25 -15.311 16.25 s -0.534 12.98 23.284 33.364 s 36.56 17.851 36.56 17.851 s 10.574 -14.5 13.689 -17.639 s 36.28 11.181 37.718 14.857 S 339.059 306.169 322.215 314.066 Z" stroke-linecap="round" />
</g>
<g transform="matrix(0.39 0 0 0.39 200 200)" id="Layer_1"  >
<linearGradient id="SVGID_linear-gradient-2_3" gradientUnits="userSpaceOnUse" gradientTransform="matrix(1 0 0 1 0 0)"  x1="14.1" y1="497.9" x2="500.595" y2="11.405">
<stop offset="0%" style="stop-color:rgb(32,145,66);stop-opacity: 1"/>
<stop offset="100%" style="stop-color:rgb(86,210,99);stop-opacity: 1"/>
</linearGradient>
<path style="stroke: none; stroke-width: 1; stroke-dasharray: none; stroke-linecap: butt; stroke-dashoffset: 0; stroke-linejoin: miter; stroke-miterlimit: 4; fill: url(#SVGID_linear-gradient-2_3); fill-rule: nonzero; opacity: 1;"  transform=" translate(-256, -256)" d="M 256 0 C 114.615 0 0 114.615 0 256 S 114.615 512 256 512 S 512 397.385 512 256 S 397.385 0 256 0 Z m 7 393.951 a 144.986 144.986 0 0 1 -68.86 -17.282 L 116.7 396 l 19.615 -75.8 A 145.656 145.656 0 1 1 263 393.951 Z" stroke-linecap="round" />
</g>
</svg>